<svg width="128" height="128" viewBox="0 0 128 128" fill="none" xmlns="http://www.w3.org/2000/svg">
  <rect width="128" height="128" rx="28" fill="#111827"/>
  <circle cx="64" cy="64" r="34" fill="#10A37F" opacity="0.2"/>
  <path d="M38 42C38 39.7909 39.7909 38 42 38H86C88.2091 38 90 39.7909 90 42V86C90 88.2091 88.2091 90 86 90H42C39.7909 90 38 88.2091 38 86V42Z" fill="#10A37F"/>
  <path d="M49 79V49H59.3125C62.0417 49 64.1458 49.6979 65.625 51.0938C67.1042 52.4792 67.8438 54.4271 67.8438 56.9375C67.8438 59.4479 67.1042 61.4062 65.625 62.8125C64.1458 64.2083 62.0417 64.9062 59.3125 64.9062H54.625V79H49ZM54.625 60.5625H58.375C59.9375 60.5625 61.1354 60.2396 61.9688 59.5938C62.8125 58.9375 63.2344 58.0521 63.2344 56.9375C63.2344 55.8229 62.8125 54.9479 61.9688 54.3125C61.1354 53.6667 59.9375 53.3438 58.375 53.3438H54.625V60.5625Z" fill="white"/>
  <path d="M72.2188 79V49H77.1406L87.7812 68.9219V49H92.3125V79H87.3906L76.75 59.0781V79H72.2188Z" fill="white"/>
</svg>
