<?xml version="1.0" encoding="UTF-8"?>
<svg id="logosandtypes_com" data-name="logosandtypes com" xmlns="http://www.w3.org/2000/svg" viewBox="0 0 150 150">
  <defs>
    <style>
      .cls-1 {
        fill: none;
      }

      .cls-2 {
        fill: #00dae8;
        fill-rule: evenodd;
      }
    </style>
  </defs>
  <path class="cls-1" d="M0,0H150V150H0V0Z"/>
  <path class="cls-2" d="M106.67,57.09c-3.37,4.81-10.2,14.38-14.76,17.81-9.5,7.33-23.63,7.33-33.14,0-4.54-3.43-11.42-13.01-14.75-17.82-9.32-13.09-24.4-20.86-40.47-20.85v11.05c37.87-.05,33.74,44.28,71.8,44.18,38.08,.06,34-44.28,71.79-44.18v-11.05c-16.07-.01-31.15,7.76-40.47,20.85Zm10.54,22.54c6.45-10.14,16.37-21.95,29.93-21.29v11.05c-21.02-.56-20.41,42.67-71.8,44.18-51.5-1.58-50.62-44.63-71.79-44.18v-11.05c17.09-.92,26.26,16.89,34.75,27.62,20.68,24.4,62.57,20.87,78.91-6.32h0Zm27.57,1.33s.03-.01,.04-.02h0c.71-.32,1.49-.51,2.32-.51v11.05h-11.29c2.12-2.82,5.28-8.57,8.93-10.52Zm-138.84,.02c3.62,1.95,6.8,7.69,8.89,10.49H3.56v-11.05c.86,0,1.67,.2,2.4,.55Zm17.6,21.54H3.56v11.05H37.08c-4.94-3.12-9.49-6.83-13.53-11.05h0Zm123.6,11.05h-33.52c4.94-3.12,9.49-6.83,13.53-11.05h19.99v11.05Z"/>
</svg>